<?xml version="1.0" encoding="UTF-8"?>
<svg width="388px" height="388px" viewBox="0 0 388 388" version="1.1" xmlns="http://www.w3.org/2000/svg" xmlns:xlink="http://www.w3.org/1999/xlink">
    <!-- Generator: Sketch 62 (91390) - https://sketch.com -->
    <title></title>
    <desc>Created with Sketch.</desc>
    <g id="Concepts" stroke="none" stroke-width="1" fill="none" fill-rule="evenodd">
        <g id="Priorities" transform="translate(-1665.000000, -681.000000)" fill="#FF0000" fill-rule="nonzero">
            <path d="M1858.99952,1068.7499 C1966.00382,1068.7499 2052.74906,982.00465 2052.74906,875.000358 C2052.74906,767.996066 1966.00458,681.25082 1858.99952,681.25082 C1751.99523,681.25082 1665.24999,767.995303 1665.24999,875.000358 C1665.24999,982.005413 1751.99523,1068.7499 1858.99952,1068.7499 Z M1976.80015,957.444924 L1776.55419,757.200498 C1831.40102,718.64163 1909.54338,722.251851 1960.64647,773.353414 C2011.77702,824.484731 2015.33384,902.635485 1976.80015,957.444924 Z M1757.35258,976.647302 C1706.22202,925.515984 1702.66521,847.365231 1741.1989,792.555791 L1941.44485,992.800217 C1886.59879,1031.35909 1808.45567,1027.74963 1757.35258,976.647302 Z" id=""></path>
        </g>
    </g>
</svg>